# xmcd
#
# Track frame offsets: 
#        150
#        17707
#        36668
#        54037
#        79104
#        99790
#        114991
#        129091
#        144223
#        157639
#        176797
#
# Disc length: 2517 seconds
#
# Revision: 0
# Processed by: cddbd v1.5.2PL0 Copyright (c) Steve Scherf et al.
# Submitted via: ExactAudioCopy v0.99pb5
#
DISCID=7509d30b
DTITLE=Bluesbrauser - Kasleberkas
DYEAR=2003
DGENRE=Blues
TTITLE0=Lullibua
TTITLE1=I brauch Di
TTITLE2=Kasleberkas
TTITLE3=I hob an Bock
TTITLE4=mir kean zom
TTITLE5=Fürn Oarsch
TTITLE6=Mit Dir
TTITLE7=Ois was föht
TTITLE8=Zruck zu mir
TTITLE9=I wü weg
TTITLE10=Auf und davo
EXTD=
EXTT0=
EXTT1=
EXTT2=
EXTT3=
EXTT4=
EXTT5=
EXTT6=
EXTT7=
EXTT8=
EXTT9=
EXTT10=
PLAYORDER=
